<?xml version="1.0" standalone="no"?>
<!DOCTYPE svg PUBLIC "-//W3C//DTD SVG 20010904//EN"
 "http://www.w3.org/TR/2001/REC-SVG-20010904/DTD/svg10.dtd">
<svg version="1.0" xmlns="http://www.w3.org/2000/svg"
 width="800.000000pt" height="232.000000pt" viewBox="0 0 800.000000 232.000000"
 preserveAspectRatio="xMidYMid meet">

<g transform="translate(0.000000,232.000000) scale(0.100000,-0.100000)"
fill="#000000" stroke="none">
<path d="M7735 2296 c-35 -15 -55 -52 -55 -101 0 -19 -4 -35 -10 -35 -5 0 -10
-13 -10 -30 l0 -30 115 0 115 0 0 30 c0 29 -2 30 -42 30 -80 0 -109 21 -92 65
6 14 16 16 60 13 l54 -5 0 33 c0 24 -5 33 -22 38 -36 9 -81 6 -113 -8z"/>
<path d="M4310 1756 c0 -334 -1 -366 -18 -386 -20 -24 -98 -43 -141 -34 -14 3
-36 7 -48 10 -23 4 -23 5 -23 209 l0 205 -75 0 -75 0 0 -174 c0 -96 -4 -186
-10 -201 -14 -37 -70 -58 -131 -50 l-49 7 0 209 0 209 -75 0 -75 0 0 -180 c0
-112 -4 -188 -11 -204 -18 -38 -92 -57 -156 -40 -23 6 -23 7 -23 215 l0 209
-80 0 -80 0 0 -215 0 -215 -128 0 c-71 0 -131 3 -135 6 -3 4 11 27 32 53 96
115 122 229 69 308 -32 48 -117 95 -206 114 -78 16 -213 6 -283 -20 -195 -74
-219 -210 -70 -399 23 -28 41 -54 41 -57 0 -3 -55 -4 -122 -3 l-123 3 -5 155
c-5 142 -7 159 -30 199 -36 63 -84 98 -164 118 -59 14 -79 15 -139 5 -173 -30
-262 -136 -261 -312 0 -66 5 -96 23 -135 49 -110 118 -146 296 -154 104 -5
120 -8 123 -24 6 -28 -35 -101 -68 -120 -54 -32 -161 -32 -277 -1 -22 6 -23 4
-23 -65 0 -69 1 -71 28 -78 15 -5 88 -8 162 -8 120 0 141 3 185 23 88 41 126
92 148 205 l13 62 629 1 c479 0 639 3 668 13 31 10 49 10 107 -3 89 -21 162
-20 226 2 44 15 56 16 95 4 28 -8 84 -12 159 -10 136 4 194 25 232 86 23 37
23 40 26 430 l3 392 -81 0 -80 0 0 -364z m-2210 -94 c46 -34 55 -67 55 -202
l0 -125 -85 3 c-134 4 -185 40 -197 139 -15 128 60 221 167 208 19 -3 46 -13
60 -23z m759 17 c28 -6 62 -20 77 -31 22 -18 25 -27 21 -60 -3 -21 -19 -60
-36 -87 -39 -60 -134 -151 -158 -151 -25 0 -138 122 -168 180 -14 27 -25 61
-25 74 0 63 157 104 289 75z"/>
<path d="M4600 1665 l0 -455 75 0 75 0 0 455 0 455 -75 0 -75 0 0 -455z"/>
<path d="M5983 2063 c-28 -32 -98 -110 -157 -173 l-106 -115 0 -62 0 -61 143
-4 c158 -3 181 -11 217 -71 25 -41 26 -120 2 -167 -30 -61 -63 -70 -259 -70
l-173 0 0 115 c0 200 -33 280 -136 331 -48 23 -70 28 -138 28 -113 0 -176 -23
-242 -88 -68 -69 -88 -127 -82 -245 6 -127 48 -195 145 -241 38 -18 183 -39
281 -40 19 0 14 -51 -8 -87 -45 -74 -147 -89 -313 -48 l-27 7 0 -70 c0 -41 5
-74 11 -78 6 -3 68 -9 138 -12 100 -4 139 -1 184 12 102 30 173 115 184 221
l6 53 531 5 c456 3 539 6 591 21 88 24 135 60 170 130 26 52 29 70 29 145 0
99 -27 172 -83 229 -109 108 -333 121 -434 24 -61 -58 -71 -93 -75 -259 l-4
-153 -74 0 c-41 0 -74 1 -74 3 0 1 7 24 15 51 31 103 10 210 -58 283 -50 55
-103 80 -199 96 l-71 12 113 125 c62 69 132 144 154 168 l40 42 -95 0 -96 0
-50 -57z m-581 -383 c23 -7 46 -23 60 -43 21 -29 23 -45 26 -171 l4 -139 -89
8 c-150 12 -193 52 -193 177 0 83 22 126 80 156 50 25 60 26 112 12z m1348
-18 c37 -27 70 -98 70 -152 0 -63 -35 -130 -80 -152 -23 -11 -65 -18 -120 -20
l-85 -3 -3 108 c-1 59 2 125 8 146 11 43 51 87 83 94 37 8 101 -3 127 -21z"/>
<path d="M7090 1665 l0 -455 75 0 75 0 0 455 0 455 -75 0 -75 0 0 -455z"/>
<path d="M205 2045 c-51 -50 -15 -135 58 -135 45 0 77 34 77 82 0 70 -86 103
-135 53z"/>
<path d="M402 2047 c-30 -32 -29 -87 1 -115 50 -47 137 -10 137 58 0 69 -91
107 -138 57z"/>
<path d="M7692 1613 l3 -408 78 -3 77 -3 0 411 0 410 -80 0 -80 0 2 -407z"/>
<path d="M274 1810 c-99 -21 -168 -71 -212 -154 -24 -46 -27 -61 -27 -156 0
-116 14 -158 72 -211 78 -73 221 -96 538 -86 187 6 229 15 276 54 63 53 69 82
69 336 l0 227 -80 0 -80 0 0 -218 c0 -215 0 -219 -23 -240 -18 -17 -37 -22
-97 -24 l-75 -3 -5 145 c-5 129 -8 151 -31 201 -39 84 -107 124 -220 133 -35
3 -82 1 -105 -4z m144 -146 c41 -27 55 -78 56 -209 l1 -120 -90 3 c-102 4
-136 18 -172 72 -30 43 -31 136 -3 198 34 74 137 102 208 56z"/>
<path d="M1190 1758 l0 -66 93 -4 c77 -3 99 -8 125 -27 55 -39 65 -71 66 -206
l1 -120 -207 -3 -208 -2 0 -65 0 -65 285 0 285 0 0 188 c0 228 -8 262 -84 338
-65 64 -119 84 -253 91 l-103 6 0 -65z"/>
<path d="M7420 1458 c0 -333 -2 -348 -63 -392 -31 -23 -121 -29 -184 -13 l-33
9 0 -71 c0 -67 1 -71 25 -77 14 -3 69 -5 123 -2 82 3 107 8 155 32 31 15 69
43 83 61 49 65 54 102 54 442 l0 313 -80 0 -80 0 0 -302z"/>
<path d="M683 1062 c-29 -4 -63 -47 -63 -79 0 -14 13 -38 30 -55 26 -25 36
-29 63 -24 45 9 71 39 71 80 0 56 -40 87 -101 78z"/>
<path d="M871 1059 c-33 -13 -50 -38 -51 -72 0 -62 54 -100 110 -77 36 15 50
37 50 79 0 29 -29 71 -49 71 -5 0 -15 2 -23 4 -7 3 -24 0 -37 -5z"/>
<path d="M3350 744 l0 -126 -22 7 c-13 4 -59 10 -103 12 -109 6 -176 -18 -239
-89 -53 -58 -76 -123 -76 -213 0 -127 47 -213 142 -261 54 -27 178 -43 346
-44 l92 0 0 420 0 420 -70 0 -70 0 0 -126z m-74 -239 c53 -22 66 -64 68 -215
l1 -125 -85 1 c-128 0 -175 33 -191 132 -24 151 84 259 207 207z"/>
<path d="M3633 850 c-45 -18 -56 -80 -22 -124 16 -20 29 -26 60 -26 50 0 79
27 79 75 0 64 -56 99 -117 75z"/>
<path d="M1206 649 c-98 -23 -157 -85 -159 -166 -4 -104 46 -152 214 -203 126
-39 147 -65 85 -106 -46 -30 -141 -30 -229 0 -42 14 -80 26 -82 26 -3 0 -5
-31 -5 -70 l0 -69 58 -18 c68 -20 218 -23 278 -5 100 30 154 94 154 183 0 92
-42 130 -204 183 -94 30 -126 50 -126 76 0 35 53 53 139 47 42 -3 88 -9 102
-12 24 -6 26 -3 43 55 9 35 15 64 13 66 -7 7 -144 24 -192 23 -27 -1 -67 -5
-89 -10z"/>
<path d="M1850 644 c-191 -36 -292 -182 -260 -375 16 -95 57 -154 131 -192 48
-24 76 -30 176 -38 66 -6 158 -9 204 -7 l84 3 0 205 c-1 191 -3 209 -24 256
-28 64 -73 109 -128 128 -47 16 -144 27 -183 20z m126 -149 c43 -28 56 -77 58
-210 l1 -120 -67 -3 c-169 -7 -246 70 -224 223 8 51 45 101 91 121 37 18 106
12 141 -11z"/>
<path d="M4330 640 c-135 -24 -226 -112 -249 -245 -21 -116 19 -243 92 -296
67 -48 124 -59 323 -62 l179 -2 -1 205 c-1 189 -2 209 -23 256 -26 59 -71 107
-121 127 -46 19 -143 27 -200 17z m114 -135 c57 -27 70 -63 74 -214 l4 -134
-95 5 c-150 8 -197 51 -197 180 0 83 22 126 80 156 52 26 90 28 134 7z"/>
<path d="M5450 640 c-153 -29 -239 -127 -248 -285 -7 -128 30 -216 111 -267
64 -40 106 -47 305 -55 l182 -6 0 186 c0 208 -9 265 -50 330 -49 78 -179 120
-300 97z m135 -144 c47 -31 59 -71 63 -210 l4 -128 -94 4 c-151 6 -202 52
-202 177 0 93 39 155 109 174 32 9 94 0 120 -17z"/>
<path d="M6030 639 c-25 -4 -64 -14 -87 -20 l-43 -12 0 -288 0 -289 75 0 75 0
0 239 0 239 23 6 c12 3 44 6 70 6 38 0 53 -5 72 -25 l25 -24 0 -221 0 -220 75
0 75 0 0 239 0 239 31 6 c61 12 97 7 126 -18 l28 -24 5 -219 5 -218 75 0 75 0
3 175 c5 298 -12 365 -101 413 -36 19 -56 22 -142 21 -57 -1 -117 -7 -140 -15
-35 -13 -46 -12 -90 3 -54 19 -158 22 -235 7z"/>
<path d="M7035 637 c-95 -32 -165 -94 -195 -176 -21 -56 -28 -168 -14 -226 19
-82 77 -150 159 -186 91 -41 270 -24 318 29 14 15 12 21 -20 64 l-35 48 -31
-17 c-45 -24 -140 -22 -174 4 -57 42 -68 68 -68 158 0 90 11 116 69 159 35 26
136 28 181 4 l29 -16 28 49 c16 26 28 53 28 59 0 39 -198 72 -275 47z"/>
<path d="M2280 416 c0 -230 5 -265 43 -320 65 -93 353 -103 443 -15 48 47 54
83 54 333 l0 226 -75 0 -75 0 0 -192 c0 -207 -8 -261 -43 -280 -29 -15 -126
-15 -155 1 -13 7 -27 23 -32 37 -6 14 -10 117 -10 230 l0 204 -75 0 -75 0 0
-224z"/>
<path d="M4960 631 c-41 -13 -104 -48 -121 -67 -9 -11 -27 -39 -40 -64 -22
-42 -24 -57 -27 -257 l-4 -213 75 0 75 0 4 188 c4 208 11 235 71 273 26 16 46
19 103 17 l71 -3 17 62 c9 34 16 64 16 67 0 9 -211 6 -240 -3z"/>
<path d="M7542 624 c-61 -23 -145 -103 -173 -166 -32 -75 -32 -184 1 -253 31
-64 91 -124 155 -155 69 -33 179 -34 250 -2 63 29 119 82 153 147 23 43 27 62
27 135 0 73 -4 93 -28 142 -30 62 -74 106 -140 140 -55 28 -183 35 -245 12z
m199 -147 c18 -12 44 -38 57 -57 32 -46 28 -139 -7 -188 -76 -108 -245 -88
-297 35 -37 86 9 193 96 226 39 15 118 7 151 -16z"/>
<path d="M3600 325 l0 -296 73 3 72 3 3 293 2 292 -75 0 -75 0 0 -295z"/>
</g>
</svg>
